<svg id="Layer_2" data-name="Layer 2" xmlns="http://www.w3.org/2000/svg" viewBox="0 0 2000 2000"><defs><style>.cls-1,.cls-3{fill:#fff;}.cls-1{stroke:#666;}.cls-1,.cls-2,.cls-3,.cls-7,.cls-8,.cls-9{stroke-miterlimit:10;}.cls-1,.cls-2,.cls-3{stroke-width:7px;}.cls-2{fill:#6b82a4;stroke:#4a6690;}.cls-3,.cls-7,.cls-8,.cls-9{stroke:#4d4d4d;}.cls-4,.cls-9{fill:#999;}.cls-5{font-size:72px;}.cls-5,.cls-6{font-family:CooperBlack, Cooper Black;}.cls-6{font-size:144px;}.cls-7{fill:#4a6690;}.cls-7,.cls-8,.cls-9{stroke-width:3px;}.cls-8{fill:#718baa;}</style></defs><path class="cls-1" d="M881.26,580c-40.32-73.81-6.88-187.76,83-231.14,116.38-56.19,280.64-2.21,333.55,57,100.92,113-5.63,246.31-134.63,213.8,0,0-18.27-4.82-70.43-25.6C1033.54,570.48,920.89,459,881.26,580Z"/><path class="cls-2" d="M931.76,334.27C831.25,410.86,789.67,574.92,953.36,659c108.08,64.48,124,52.7,217.44,117.36,161.53,100,172.77,258.61,109.66,415.07,41.31-102.42-25.3-278.1-232.66-357.7C963.35,801.3,843,820.59,774.2,851c-61.92,27.36-33.12,51.84-61.92,19C593.44,734.49,604.49,590.33,681,485q3.72-5.1,7.62-10.08C745.62,402.32,834.22,349.87,931.76,334.27Z"/><path class="cls-3" d="M860,845.21c99.46-26.07,298.5,4.83,367.7,205.68,42.56,123.53-31.33,257.57-136.54,302.67-45,19.3-118.41,55.79-248.81,32.4-84.2-15.1-121-40.39-163.6-77.76-27.68-24.28-70.59-79.84-58.44-154.19,7.85-48.08,48.59-100,95.16-111.49,66-16.24,113.6,2.15,121.27-13.55,13.57-27.79-4.28-47.66-61.45-93.58C738.52,905.84,791.37,863.2,860,845.21ZM743.68,1090.15c-30.35,1.52-54,20.91-52.91,43.3s26.64,39.3,57,37.77,54-20.92,52.91-43.3S774,1088.62,743.68,1090.15Z"/><circle class="cls-4" cx="1076" cy="440.16" r="10.08"/><circle class="cls-4" cx="1113.17" cy="456.74" r="10.08"/><circle class="cls-4" cx="1149.32" cy="474.91" r="10.08"/><text class="cls-5" transform="translate(712.09 1678.05) scale(1.58 1)">DESIGN</text><text class="cls-6" transform="translate(730.3 1597.15)">SHAB</text><circle class="cls-7" cx="913.08" cy="1290.49" r="38"/><circle class="cls-8" cx="1056.09" cy="1254.49" r="38"/><circle class="cls-9" cx="1149.32" cy="1153.42" r="38"/></svg>