<svg id="Layer_2" data-name="Layer 2" xmlns="http://www.w3.org/2000/svg" viewBox="0 0 2000 2000"><defs><style>.cls-1{fill:#c7b299;}.cls-1,.cls-5,.cls-6,.cls-7{stroke:#754c24;}.cls-1,.cls-2,.cls-3,.cls-5,.cls-6,.cls-7,.cls-8{stroke-miterlimit:10;}.cls-1,.cls-2,.cls-8{stroke-width:15px;}.cls-2,.cls-6{fill:#7b97b2;}.cls-2,.cls-8{stroke:#4a6690;}.cls-3,.cls-4{fill:#8c6239;}.cls-3{stroke:#8c6239;}.cls-5{fill:#4a6690;}.cls-5,.cls-6,.cls-7{stroke-width:10px;}.cls-7{fill:#999;}.cls-8{fill:#bac4d4;}</style></defs><path class="cls-1" d="M970.9,573.06C814.63,213.58,1302.08,46.15,1536.32,273.24,1723.68,454.9,1616.47,694.73,1393.73,661,1194.38,630.74,1085.45,258.37,970.9,573.06Z"/><path class="cls-2" d="M852,150.54c-165.37,126-92.22,545.21,205.81,598.6,525.12,79.83,533.07,438.7,528.93,774C1591,1171.55,1288.3,915.82,914,957.74,554.31,824.29,483.48,339.75,852,150.54Z"/><path class="cls-1" d="M934.29,1016c163.65-42.9,457.09,25.2,575.72,335.54,85.56,223.81-30.66,415.48-195.37,500.87-82.49,42.77-255,87.94-409.39,53.31-145-32.51-199.11-66.46-269.18-127.94-45.54-40-116.15-131.36-96.15-253.7,12.92-79.1,80-164.57,156.57-183.44C805,1314,883.41,1344.22,896,1318.38c22.33-45.72-7-78.41-101.11-154C734.4,1115.8,821.36,1045.64,934.29,1016Zm-191.4,403c-49.94,2.52-88.91,34.41-87.06,71.25s43.84,64.66,93.77,62.15,88.92-34.41,87.06-71.25S792.82,1416.53,742.89,1419Z"/><circle class="cls-3" cx="1289.68" cy="349.59" r="16.59"/><circle class="cls-4" cx="1350.84" cy="376.86" r="16.59"/><circle class="cls-3" cx="1410.32" cy="406.76" r="16.59"/><circle class="cls-5" cx="1021.61" cy="1748.68" r="62.53"/><circle class="cls-6" cx="1256.91" cy="1689.44" r="62.53"/><circle class="cls-7" cx="1410.32" cy="1523.15" r="62.53"/><path class="cls-8" d="M973.19,658.59c-143.06-68.91-244.44-358.18-69.37-512.14,55.09-51.76,91.27-68.31,135.71-68.34,59.23,0,81.88,53.62,48.57,72.7-129.62,69.5-182,142.5-184.81,338.59C909.42,560.22,973.19,658.59,973.19,658.59Z"/><path class="cls-8" d="M857.09,979c-81.33,22.54-153.61,152.86-236,6.91-31.29-59,22.76-156,79.66-111.29C793.12,947.24,857.09,979,857.09,979Z"/><path class="cls-8" d="M671.1,825c-42.65-48.37-62.83-90.23-92.4-182.44C548.12,566.45,441.93,884.41,671.1,825Z"/></svg>